<svg id="Capa_1" enable-background="new 0 0 512 512" height="512" viewBox="0 0 512 512" width="512" xmlns="http://www.w3.org/2000/svg"><path d="m449.78 226h-37.679c.086-10.488-3.429-20.73-10.179-29.064-8.717-10.763-21.66-16.936-35.51-16.936h-295.199c-13.85 0-26.793 6.173-35.51 16.936s-12.066 24.706-9.189 38.254l28.078 132.198c4.419 20.807 15.049 39.889 30.266 54.612h-59.835c-8.728 0-16.677 4.432-21.266 11.856-4.588 7.424-4.998 16.517-1.095 24.324l11.708 23.416c9.377 18.754 28.226 30.404 49.194 30.404h310.399c20.889 0 39.708-11.587 49.111-30.24l11.851-23.506c3.937-7.809 3.55-16.916-1.036-24.362-4.585-7.447-12.543-11.892-21.287-11.892h-59.835c10.279-9.946 18.445-21.888 24.036-35h33.111c53.413 0 96.868-43.455 96.868-96.868v-7.129c0-31.432-25.571-57.003-57.002-57.003zm-171.218 196h-119.5c-17.54 0-34.707-6.08-48.337-17.119s-23.144-26.568-26.788-43.726l-28.078-132.198c-.988-4.654.162-9.443 3.156-13.14s7.44-5.817 12.197-5.817h295.199c4.757 0 9.203 2.12 12.197 5.817s4.145 8.486 3.156 13.14l-28.078 132.198c-3.644 17.157-13.158 32.686-26.788 43.726s-30.796 17.119-48.336 17.119zm95.401 60h-310.399c-9.53 0-18.099-5.295-22.36-13.82l-8.091-16.18h125.949 119.5 125.919l-8.195 16.254c-4.274 8.479-12.828 13.746-22.323 13.746zm102.819-191.868c0 36.871-29.997 66.868-66.868 66.868h-24.675l21.452-101h43.089c14.889 0 27.002 12.113 27.002 27.002z"/><path d="m181.539 149c8.284 0 15-6.716 15-15v-16.857c0-5.778 2.925-11.056 7.825-14.119 13.729-8.581 21.925-23.369 21.925-39.558v-22.435c0-8.284-6.716-15-15-15s-15 6.716-15 15v22.435c0 5.778-2.925 11.056-7.825 14.119-13.729 8.581-21.925 23.369-21.925 39.558v16.857c0 8.284 6.716 15 15 15z"/><path d="m259.336 122.969c8.284 0 15-6.716 15-15v-16.857c0-5.778 2.925-11.056 7.825-14.119 13.729-8.581 21.925-23.369 21.925-39.558v-22.435c0-8.284-6.716-15-15-15s-15 6.716-15 15v22.435c0 5.778-2.925 11.056-7.825 14.119-13.729 8.581-21.925 23.369-21.925 39.558v16.857c0 8.284 6.715 15 15 15z"/></svg>