<?xml version="1.0" encoding="iso-8859-1"?>
<!-- Generator: Adobe Illustrator 19.0.0, SVG Export Plug-In . SVG Version: 6.00 Build 0)  -->
<svg version="1.1" id="Layer_1" xmlns="http://www.w3.org/2000/svg" xmlns:xlink="http://www.w3.org/1999/xlink" x="0px" y="0px"
	 viewBox="0 0 512 512" style="enable-background:new 0 0 512 512;" xml:space="preserve">
<g>
	<g>
		<path d="M486.4,384c-3.413-101.153-72.791-188.082-170.667-213.845v-33.621c0-32.99-26.744-59.733-59.733-59.733
			s-59.733,26.743-59.733,59.733v33.621C98.391,195.918,29.013,282.847,25.6,384C11.461,384,0,395.462,0,409.6
			s11.461,25.6,25.6,25.6h460.8c14.138,0,25.6-11.461,25.6-25.6S500.539,384,486.4,384z M213.333,136.533
			c0-23.564,19.102-42.667,42.667-42.667s42.667,19.103,42.667,42.667v29.525l-4.693-0.683l-4.352-0.683
			c-2.645,0-5.291-0.768-8.021-1.024v-27.136c0-14.139-11.461-25.6-25.6-25.6s-25.6,11.461-25.6,25.6v27.136
			c-2.731,0-5.376,0.597-8.021,1.024l-4.352,0.683l-4.693,0.683V136.533z M264.533,136.533v25.6c-5.803,0-11.264,0-17.067,0v-25.6
			c0-4.713,3.82-8.533,8.533-8.533S264.533,131.821,264.533,136.533z M221.099,242.688c1.32,4.524-1.278,9.262-5.803,10.581
			c-12.729,3.774-24.876,9.287-36.096,16.384c-11.24,7.116-21.46,15.729-30.379,25.6c-1.613,1.788-3.907,2.81-6.315,2.816
			c-4.713,0.032-8.559-3.762-8.591-8.475c-0.015-2.172,0.799-4.268,2.277-5.861c10.061-10.95,21.541-20.507,34.133-28.416
			c12.667-7.924,26.363-14.069,40.704-18.261C215.339,236.036,219.712,238.482,221.099,242.688z M86.784,293.291
			c22.92-39.001,58.567-68.922,100.949-84.736c4.312-1.902,9.349,0.051,11.252,4.363c1.902,4.312-0.051,9.349-4.363,11.251
			c-0.298,0.132-0.604,0.246-0.915,0.342c-38.663,14.507-71.189,41.823-92.16,77.397c-1.537,2.592-4.326,4.181-7.339,4.181
			c-1.535,0.026-3.046-0.388-4.352-1.195C85.824,302.524,84.454,297.347,86.784,293.291z M486.4,418.133H25.6
			c-4.713,0-8.533-3.82-8.533-8.533s3.82-8.533,8.533-8.533h460.8c4.713,0,8.533,3.82,8.533,8.533S491.113,418.133,486.4,418.133z"
			/>
	</g>
</g>
<g>
</g>
<g>
</g>
<g>
</g>
<g>
</g>
<g>
</g>
<g>
</g>
<g>
</g>
<g>
</g>
<g>
</g>
<g>
</g>
<g>
</g>
<g>
</g>
<g>
</g>
<g>
</g>
<g>
</g>
</svg>
