<?xml version="1.0" encoding="iso-8859-1"?>
<!-- Generator: Adobe Illustrator 19.0.0, SVG Export Plug-In . SVG Version: 6.00 Build 0)  -->
<svg version="1.1" id="Layer_1" xmlns="http://www.w3.org/2000/svg" xmlns:xlink="http://www.w3.org/1999/xlink" x="0px" y="0px"
	 viewBox="0 0 512 512" style="enable-background:new 0 0 512 512;" xml:space="preserve">
<g>
	<g>
		<g>
			<path d="M187.628,0H43.707C19.607,0,0,19.607,0,43.707v143.921c0,24.1,19.607,43.707,43.707,43.707h143.921
				c24.1,0,43.707-19.607,43.707-43.707V43.707C231.335,19.607,211.728,0,187.628,0z M193.872,187.628
				c0,3.443-2.801,6.244-6.244,6.244H43.707c-3.443,0-6.244-2.801-6.244-6.244V43.707c0-3.443,2.801-6.244,6.244-6.244h143.921
				c3.443,0,6.244,2.801,6.244,6.244V187.628z"/>
			<path d="M468.293,0H324.372c-24.1,0-43.707,19.607-43.707,43.707v143.921c0,24.1,19.607,43.707,43.707,43.707h143.921
				c24.1,0,43.707-19.607,43.707-43.707V43.707C512,19.607,492.393,0,468.293,0z"/>
			<path d="M187.628,280.665H43.707C19.607,280.665,0,300.272,0,324.372v143.921C0,492.393,19.607,512,43.707,512h143.921
				c24.1,0,43.707-19.607,43.707-43.707V324.372C231.335,300.272,211.728,280.665,187.628,280.665z"/>
			<path d="M468.293,280.665H324.372c-24.1,0-43.707,19.607-43.707,43.707v143.921c0,24.1,19.607,43.707,43.707,43.707h143.921
				c24.1,0,43.707-19.607,43.707-43.707V324.372C512,300.272,492.393,280.665,468.293,280.665z M474.537,468.293
				c0,3.443-2.801,6.244-6.244,6.244H324.372c-3.443,0-6.244-2.801-6.244-6.244V324.372c0-3.443,2.801-6.244,6.244-6.244h143.921
				c3.443,0,6.244,2.801,6.244,6.244V468.293z"/>
		</g>
	</g>
</g>
<g>
</g>
<g>
</g>
<g>
</g>
<g>
</g>
<g>
</g>
<g>
</g>
<g>
</g>
<g>
</g>
<g>
</g>
<g>
</g>
<g>
</g>
<g>
</g>
<g>
</g>
<g>
</g>
<g>
</g>
</svg>
