<svg id="_x31__x2C_5" enable-background="new 0 0 36 36" height="512" viewBox="0 0 36 36" width="512"
    xmlns="http://www.w3.org/2000/svg">
    <path
        d="m31.833 27.623c0-6.917 3.583-11.667 3.583-15s-1.916-10.333-17.249-10.333-17.584 9.417-17.584 13.083c0 17.167 31.25 24.5 31.25 12.25z"
        fill="#efefef" />
    <path d="m13.375 3.25h1v2h-1z" fill="#a4afc1" />
    <path d="m10.125 6.25h2v1h-2z" fill="#a4afc1" />
    <path
        d="m18 6.75-11.1 10.64c-.09.09-.15.22-.15.36 0 .28.22.5.5.5h2.5v9.5c0 .825.675 1.5 1.5 1.5h13.5c.825 0 1.5-.675 1.5-1.5v-9.5h2.5c.28 0 .5-.22.5-.5 0-.14-.06-.27-.15-.36l-2.85-2.8v-6.84h-3.5v3.38z"
        fill="#f3f3f1" />
    <path
        d="m17.614 16.792-3.411 2.047c-.28.168-.453.481-.453.82v2.682c0 .339.173.652.453.82l3.411 2.047c.057.027.12.042.186.042.249 0 .45-.211.45-.472v-7.556c0-.261-.201-.472-.45-.472-.066 0-.13.015-.186.042z"
        fill="#2fdf84" />
    <g fill="#d5dbe1">
        <path d="m25 11.13v-3.38h-2.25v1.305z" />
        <path
            d="m9 17.75c0-.14.06-.27.15-.36l9.997-9.583-1.147-1.057-11.1 10.64c-.09.09-.15.22-.15.36 0 .28.22.5.5.5h2.25c-.28 0-.5-.22-.5-.5z" />
        <path d="m12 27.75v-9.5h-2.25v9.5c0 .825.675 1.5 1.5 1.5h2.25c-.825 0-1.5-.675-1.5-1.5z" />
    </g>
    <path
        d="m16.453 23.161c-.28-.168-.453-.481-.453-.82v-2.682c0-.339.173-.652.453-.82l1.797-1.078v-.539c0-.261-.201-.472-.45-.472-.066 0-.13.015-.186.042l-3.411 2.047c-.28.168-.453.481-.453.82v2.682c0 .339.173.652.453.82l3.411 2.047c.057.027.12.042.186.042.249 0 .45-.211.45-.472v-.539z"
        fill="#00b871" />
    <path
        d="m17.8 26c-.177 0-.348-.039-.508-.115l-3.475-2.082c-.504-.301-.817-.862-.817-1.462v-2.682c0-.6.313-1.161.817-1.463l3.41-2.046c.021-.013.042-.024.064-.035.161-.076.332-.115.509-.115.662 0 1.2.548 1.2 1.222v7.556c0 .674-.538 1.222-1.2 1.222zm-.3-8.265-2.911 1.747c-.054.033-.089.102-.089.177v2.682c0 .075.035.144.089.176l2.911 1.748z" />
    <path
        d="m20.75 23.5h-.75v-1.5h.75c.406 0 .75-.458.75-1s-.344-1-.75-1h-.75v-1.5h.75c1.24 0 2.25 1.122 2.25 2.5s-1.01 2.5-2.25 2.5z" />
    <path
        d="m24.75 30h-13.5c-1.24 0-2.25-1.009-2.25-2.25v-8.75h-1.75c-.689 0-1.25-.561-1.25-1.25 0-.333.136-.659.373-.893l11.108-10.649c.285-.274.734-.279 1.027-.01l3.492 3.22v-1.668c0-.414.336-.75.75-.75h3.5c.414 0 .75.336.75.75v6.525l2.625 2.58c.239.236.375.562.375.895 0 .689-.561 1.25-1.25 1.25h-1.75v8.75c0 1.241-1.01 2.25-2.25 2.25zm-16.881-12.5h1.881c.414 0 .75.336.75.75v9.5c0 .414.337.75.75.75h13.5c.413 0 .75-.336.75-.75v-9.5c0-.414.336-.75.75-.75h1.892l-2.417-2.375c-.144-.141-.225-.334-.225-.535v-6.09h-2v2.63c0 .298-.176.567-.449.687-.271.12-.59.067-.81-.136l-4.231-3.902z" />
</svg>